<svg xmlns="http://www.w3.org/2000/svg" version="1.1" xmlns:xlink="http://www.w3.org/1999/xlink" width="256" height="256"><svg id="SvgjsSvg1017" xmlns="http://www.w3.org/2000/svg" version="1.1" viewBox="0 0 256 256">
  <!-- Generator: Adobe Illustrator 29.8.2, SVG Export Plug-In . SVG Version: 2.1.1 Build 3)  -->
  <defs>
    <style>
      .st0 {
        fill: none;
      }

      .st1 {
        stroke: #fff;
        stroke-miterlimit: 10;
        stroke-width: 8px;
      }

      .st1, .st2 {
        fill: #214a7a;
      }
    </style>
  </defs>
  <g>
    <polygon class="st0" points="224.2 228.4 163.3 228.4 128.1 102 93.1 228.4 32.2 228.4 0 83.4 0 256 256 256 256 84 224.2 228.4"></polygon>
    <polygon class="st0" points="67.7 140 98.8 27.6 157.5 27.6 188.6 139.9 209.8 27.6 256 27.6 256 0 0 0 0 27.6 46.5 27.6 67.7 140"></polygon>
    <polygon class="st2" points="93.1 228.4 128.1 102 163.3 228.4 224.2 228.4 256 84 256 27.6 209.8 27.6 188.6 139.9 157.5 27.6 98.8 27.6 67.7 140 46.5 27.6 0 27.6 0 83.4 32.2 228.4 93.1 228.4"></polygon>
  </g>
  <path class="st1" d="M51,156.7l49.9-3.1c1.1,8.1,3.3,14.3,6.6,18.5,5.4,6.9,13.1,10.3,23.1,10.3s13.3-1.8,17.3-5.3c4-3.5,6.1-7.6,6.1-12.2s-1.9-8.3-5.8-11.8c-3.9-3.5-12.8-6.8-26.8-9.8-23-5.2-39.4-12-49.2-20.6-9.9-8.6-14.8-19.5-14.8-32.7s2.5-17,7.6-24.7c5.1-7.8,12.7-13.8,22.8-18.3,10.1-4.4,24-6.7,41.7-6.7s38.2,4,49.6,12.1c11.4,8.1,18.1,20.9,20.3,38.5l-49.4,2.9c-1.3-7.6-4.1-13.2-8.3-16.7-4.2-3.5-10-5.2-17.4-5.2s-10.7,1.3-13.8,3.9c-3.1,2.6-4.6,5.7-4.6,9.4s1.3,5.1,3.8,7.3c2.5,2.2,8.3,4.3,17.6,6.2,22.9,4.9,39.3,9.9,49.2,15,9.9,5.1,17.1,11.3,21.6,18.8,4.5,7.5,6.8,15.9,6.8,25.1s-3,20.9-9,30.1c-6,9.2-14.4,16.1-25.2,20.9-10.8,4.7-24.4,7.1-40.8,7.1-28.9,0-48.8-5.6-59.9-16.7-11.1-11.1-17.4-25.2-18.9-42.4Z"></path>
  <path class="st2" d="M51,156.7l49.9-3.1c1.1,8.1,3.3,14.3,6.6,18.5,5.4,6.9,13.1,10.3,23.1,10.3s13.3-1.8,17.3-5.3c4-3.5,6.1-7.6,6.1-12.2s-1.9-8.3-5.8-11.8c-3.9-3.5-12.8-6.8-26.8-9.8-23-5.2-39.4-12-49.2-20.6-9.9-8.6-14.8-19.5-14.8-32.7s2.5-17,7.6-24.7c5.1-7.8,12.7-13.8,22.8-18.3,10.1-4.4,24-6.7,41.7-6.7s38.2,4,49.6,12.1c11.4,8.1,18.1,20.9,20.3,38.5l-49.4,2.9c-1.3-7.6-4.1-13.2-8.3-16.7-4.2-3.5-10-5.2-17.4-5.2s-10.7,1.3-13.8,3.9c-3.1,2.6-4.6,5.7-4.6,9.4s1.3,5.1,3.8,7.3c2.5,2.2,8.3,4.3,17.6,6.2,22.9,4.9,39.3,9.9,49.2,15,9.9,5.1,17.1,11.3,21.6,18.8,4.5,7.5,6.8,15.9,6.8,25.1s-3,20.9-9,30.1c-6,9.2-14.4,16.1-25.2,20.9-10.8,4.7-24.4,7.1-40.8,7.1-28.9,0-48.8-5.6-59.9-16.7-11.1-11.1-17.4-25.2-18.9-42.4Z"></path>
</svg><style>@media (prefers-color-scheme: light) { :root { filter: none; } }
@media (prefers-color-scheme: dark) { :root { filter: none; } }
</style></svg>