<?xml version="1.0" encoding="utf-8"?>
<!-- Generator: Adobe Illustrator 23.0.1, SVG Export Plug-In . SVG Version: 6.00 Build 0)  -->
<svg version="1.1" id="Layer_1" xmlns="http://www.w3.org/2000/svg" xmlns:xlink="http://www.w3.org/1999/xlink" x="0px" y="0px"
	 viewBox="0 0 236.39 14.12" style="enable-background:new 0 0 236.39 14.12;" xml:space="preserve">
<style type="text/css">
	.st0{opacity:0.5;fill:#697887;}
</style>
<path class="st0" d="M147.74,14.12c-5.51,0-11.02-2.07-15.32-6.2l-0.3-0.28c-7.81-7.52-20.05-7.52-27.87,0l-0.3,0.28
	c-8.59,8.27-22.05,8.27-30.64,0l-0.3-0.28c-7.81-7.52-20.05-7.52-27.87,0l-0.3,0.28c-8.59,8.27-22.05,8.27-30.64,0l-0.3-0.28
	C10.17,4.02,5.22,2.03,0,2.03v-2c5.74,0,11.18,2.19,15.32,6.17l0.3,0.28c7.81,7.52,20.05,7.52,27.87,0l0.3-0.28
	c8.59-8.27,22.05-8.27,30.64,0l0.3,0.28c7.81,7.52,20.05,7.52,27.87,0l0.3-0.28c8.59-8.27,22.05-8.27,30.64,0l0.3,0.28
	c7.81,7.52,20.05,7.52,27.87,0l0.3-0.28c8.59-8.27,22.05-8.27,30.64,0l0.3,0.28c7.81,7.52,20.06,7.52,27.87,0l0.29-0.28
	c4.14-3.98,9.58-6.17,15.32-6.17v2c-5.22,0-10.17,1.99-13.93,5.61l-0.29,0.28c-8.59,8.27-22.05,8.27-30.64,0l-0.3-0.28
	c-7.81-7.52-20.05-7.52-27.87,0l-0.3,0.28C158.77,12.06,153.25,14.12,147.74,14.12z"/>
</svg>
